<svg width="1141" height="722" xmlns="http://www.w3.org/2000/svg" xmlns:xlink="http://www.w3.org/1999/xlink" overflow="hidden"><defs><clipPath id="clip0"><rect x="69" y="-1" width="1141" height="722"/></clipPath><clipPath id="clip1"><rect x="571" y="291" width="138" height="138"/></clipPath><clipPath id="clip2"><rect x="571" y="291" width="138" height="138"/></clipPath><clipPath id="clip3"><rect x="571" y="291" width="138" height="138"/></clipPath></defs><g clip-path="url(#clip0)" transform="translate(-69 1)"><rect x="69" y="0" width="1140" height="720" fill="#FFFFFF"/><text font-family="Noto Mono,Noto Mono_MSFontService,sans-serif" font-weight="400" font-size="107" transform="translate(146.933 276)">HTML<tspan font-size="107" x="0" y="115">Video</tspan><tspan font-size="107" x="0" y="230">Encode</tspan></text><g clip-path="url(#clip1)"><g clip-path="url(#clip2)"><g clip-path="url(#clip3)"><path d="M629.938 329.812 658.688 348.356 629.938 366.914 629.938 329.812Z"/><path d="M680.25 322.625 680.25 374.375 599.75 374.375 599.75 322.625ZM691.75 377.25 688.875 377.25 688.875 318.312 691.75 318.312C693.338 318.312 694.625 317.025 694.625 315.438 694.625 313.85 693.338 312.562 691.75 312.562L642.875 312.562 642.875 309.688C642.875 308.1 641.588 306.812 640 306.812 638.412 306.812 637.125 308.1 637.125 309.688L637.125 312.562 588.25 312.562C586.662 312.562 585.375 313.85 585.375 315.438 585.375 317.025 586.662 318.312 588.25 318.312L591.125 318.312 591.125 377.25 588.25 377.25C586.662 377.25 585.375 378.537 585.375 380.125 585.375 381.713 586.662 383 588.25 383L632.151 383 610.014 405.138C608.89 406.273 608.9 408.104 610.035 409.227 611.171 410.351 613.002 410.341 614.125 409.206L637.125 386.206 637.125 411.75C637.125 413.338 638.412 414.625 640 414.625 641.588 414.625 642.875 413.338 642.875 411.75L642.875 386.163 665.875 409.163C666.998 410.286 668.82 410.286 669.943 409.163 671.067 408.039 671.067 406.218 669.943 405.094L647.849 383 691.75 383C693.338 383 694.625 381.713 694.625 380.125 694.625 378.537 693.338 377.25 691.75 377.25Z"/></g></g></g></g></svg>